<svg width="176" height="130" viewBox="0 0 176 130" fill="none" xmlns="http://www.w3.org/2000/svg">
<path d="M17.15 39.83V42.21C18.4645 42.21 19.53 41.1444 19.53 39.83H17.15ZM41.48 5.26999L40.7445 3.00651L40.7431 3.00695L41.48 5.26999ZM87.96 27.27L85.7251 28.0883C86.0686 29.0264 86.9614 29.6502 87.9605 29.65C88.9595 29.6498 89.8521 29.0257 90.1952 28.0874L87.96 27.27ZM134.44 5.26999L133.702 7.53282L133.704 7.53347L134.44 5.26999ZM158.77 39.83L156.39 39.83L156.39 39.832L158.77 39.83ZM139.39 92.78L137.574 91.2421C137.569 91.248 137.564 91.254 137.559 91.26L139.39 92.78ZM138.56 93.78L140.351 95.3472C140.365 95.3316 140.378 95.3159 140.391 95.3L138.56 93.78ZM97.43 124.61L96.4282 122.451L96.4165 122.457L97.43 124.61ZM78.48 124.61L79.4935 122.457L79.4818 122.451L78.48 124.61ZM37.35 93.78L35.5187 95.3C35.5318 95.3159 35.5452 95.3316 35.5588 95.3472L37.35 93.78ZM36.52 92.78L38.3514 91.26C38.3464 91.254 38.3414 91.248 38.3364 91.2421L36.52 92.78ZM17.14 39.83V37.45C15.8264 37.45 14.7611 38.5144 14.76 39.828L17.14 39.83ZM1.92163 55.0731C2.16633 56.3645 3.41163 57.2131 4.70309 56.9684C5.99455 56.7237 6.84312 55.4784 6.59842 54.1869L1.92163 55.0731ZM5.3848 46.1213C5.23639 44.8152 4.05733 43.8768 2.75129 44.0252C1.44526 44.1736 0.506826 45.3527 0.655239 46.6587L5.3848 46.1213ZM24.9385 104.021C25.8285 104.989 27.3341 105.051 28.3014 104.162C29.2688 103.272 29.3315 101.766 28.4415 100.799L24.9385 104.021ZM25.77 101.41L24.012 103.014L24.0185 103.021L25.77 101.41ZM12.6014 74.7502C12.1155 73.5288 10.7315 72.9327 9.51018 73.4186C8.28886 73.9045 7.6927 75.2885 8.17862 76.5098L12.6014 74.7502ZM169.402 54.1869C169.157 55.4784 170.005 56.7237 171.297 56.9684C172.588 57.2131 173.834 56.3645 174.078 55.0731L169.402 54.1869ZM175.345 46.6587C175.493 45.3527 174.555 44.1736 173.249 44.0252C171.943 43.8768 170.764 44.8152 170.615 46.1213L175.345 46.6587ZM147.558 100.799C146.669 101.766 146.731 103.272 147.699 104.162C148.666 105.051 150.172 104.989 151.062 104.021L147.558 100.799ZM150.23 101.41L151.982 103.021L151.99 103.012L150.23 101.41ZM167.818 76.5085C168.309 75.2891 167.718 73.9028 166.499 73.4121C165.279 72.9213 163.893 73.512 163.402 74.7314L167.818 76.5085ZM144.1 42.22C144.1 43.5344 145.166 44.6 146.48 44.6C147.794 44.6 148.86 43.5344 148.86 42.22H144.1ZM121.48 13.39C120.166 13.39 119.1 14.4556 119.1 15.77C119.1 17.0844 120.166 18.15 121.48 18.15V13.39ZM106.371 24.2729C107.328 23.3719 107.374 21.8657 106.473 20.9086C105.572 19.9516 104.066 19.9061 103.109 20.8071L106.371 24.2729ZM97.6569 27.829C97.0212 28.9795 97.4385 30.4275 98.589 31.0632C99.7395 31.6988 101.187 31.2815 101.823 30.131L97.6569 27.829ZM43.6194 20.626C44.7881 20.0244 45.2477 18.5893 44.6461 17.4206C44.0444 16.252 42.6093 15.7923 41.4406 16.3939L43.6194 20.626ZM29.1589 29.0917C28.5965 30.2797 29.1037 31.6987 30.2917 32.2611C31.4798 32.8235 32.8988 32.3164 33.4612 31.1283L29.1589 29.0917ZM123.148 93.7781C124.075 92.846 124.07 91.339 123.138 90.4123C122.206 89.4855 120.699 89.4898 119.772 90.4219L123.148 93.7781ZM117.8 95.59L116.202 93.8264L116.201 93.8274L117.8 95.59ZM88.6795 111.618C87.4744 112.143 86.9231 113.545 87.4481 114.751C87.9731 115.956 89.3755 116.507 90.5806 115.982L88.6795 111.618ZM139.038 73.4386C139.717 72.3128 139.354 70.8502 138.229 70.1716C137.103 69.4931 135.64 69.8556 134.962 70.9814L139.038 73.4386ZM132.018 75.5925C131.29 76.6872 131.588 78.1644 132.683 78.8921C133.777 79.6197 135.254 79.3222 135.982 78.2275L132.018 75.5925ZM19.53 39.83C19.53 25.2779 28.5331 11.9891 42.217 7.53302L40.7431 3.00695C24.9469 8.15089 14.77 23.3821 14.77 39.83H19.53ZM42.2156 7.53346C61.6752 1.20958 79.7423 11.7477 85.7251 28.0883L90.1949 26.4517C83.3778 7.8323 62.7649 -4.14961 40.7445 3.00651L42.2156 7.53346ZM90.1952 28.0874C96.1785 11.727 114.245 1.19076 133.702 7.53282L135.178 3.00715C113.155 -4.17079 92.5416 7.81299 85.7248 26.4525L90.1952 28.0874ZM133.704 7.53347C147.386 11.9795 156.39 25.2768 156.39 39.83H161.15C161.15 23.3832 150.974 8.14044 135.176 3.0065L133.704 7.53347ZM156.39 39.832C156.406 58.6565 149.737 76.8753 137.574 91.2421L141.206 94.3179C154.099 79.0904 161.167 59.7803 161.15 39.828L156.39 39.832ZM137.559 91.26L136.729 92.26L140.391 95.3L141.221 94.3L137.559 91.26ZM136.769 92.2128C125.582 104.999 111.84 115.3 96.4282 122.451L98.4318 126.769C114.446 119.338 128.726 108.634 140.351 95.3472L136.769 92.2128ZM96.4165 122.457C93.7697 123.702 90.8804 124.348 87.955 124.348V129.108C91.5812 129.108 95.1626 128.308 98.4435 126.763L96.4165 122.457ZM87.955 124.348C85.0297 124.348 82.1404 123.702 79.4935 122.457L77.4665 126.763C80.7474 128.308 84.3289 129.108 87.955 129.108V124.348ZM79.4818 122.451C64.0705 115.3 50.3284 104.999 39.1412 92.2128L35.5588 95.3472C47.1839 108.634 61.4638 119.338 77.4782 126.769L79.4818 122.451ZM39.1814 92.26L38.3514 91.26L34.6887 94.3L35.5187 95.3L39.1814 92.26ZM38.3364 91.2421C26.1726 76.8753 19.5044 58.6565 19.52 39.832L14.76 39.828C14.7435 59.7803 21.8111 79.0904 34.7036 94.3179L38.3364 91.2421ZM17.14 42.21H17.15V37.45H17.14V42.21ZM6.59842 54.1869C6.07055 51.401 5.67892 48.7096 5.3848 46.1213L0.655239 46.6587C0.961115 49.3504 1.3695 52.159 1.92163 55.0731L6.59842 54.1869ZM28.4415 100.799L27.5215 99.7986L24.0185 103.021L24.9385 104.021L28.4415 100.799ZM27.528 99.8057C19.0579 90.5243 15.1856 81.2454 12.6014 74.7502L8.17862 76.5098C10.8144 83.1346 14.9421 93.0757 24.012 103.014L27.528 99.8057ZM174.078 55.0731C174.631 52.159 175.039 49.3504 175.345 46.6587L170.615 46.1213C170.321 48.7096 169.929 51.401 169.402 54.1869L174.078 55.0731ZM151.062 104.021L151.982 103.021L148.478 99.7986L147.558 100.799L151.062 104.021ZM151.99 103.012C161.049 93.0636 165.157 83.1213 167.818 76.5085L163.402 74.7314C160.783 81.2387 156.931 90.5164 148.47 99.8076L151.99 103.012ZM148.86 42.22C148.86 26.4232 136.719 13.39 121.48 13.39V18.15C133.841 18.15 144.1 28.7968 144.1 42.22H148.86ZM103.109 20.8071C100.938 22.8506 99.0987 25.2196 97.6569 27.829L101.823 30.131C103.026 27.9541 104.56 25.9777 106.371 24.2729L103.109 20.8071ZM41.4406 16.3939C36.063 19.1624 31.7468 23.6248 29.1589 29.0917L33.4612 31.1283C35.6016 26.6067 39.1716 22.9159 43.6194 20.626L41.4406 16.3939ZM119.772 90.4219C118.643 91.5579 117.453 92.6928 116.202 93.8264L119.398 97.3535C120.707 96.1672 121.957 94.9754 123.148 93.7781L119.772 90.4219ZM116.201 93.8274C108.057 101.217 98.7609 107.226 88.6795 111.618L90.5806 115.982C101.137 111.383 110.872 105.09 119.399 97.3525L116.201 93.8274ZM134.962 70.9814C134.106 72.4007 133.137 73.909 132.018 75.5925L135.982 78.2275C137.123 76.511 138.134 74.9393 139.038 73.4386L134.962 70.9814Z" fill="#FC4C02"/>
</svg>
