<svg width="178" height="132" viewBox="0 0 178 132" fill="none" xmlns="http://www.w3.org/2000/svg">
<path d="M18.15 40.83C18.15 25.33 27.74 11.07 42.48 6.26999C63.22 -0.470014 82.56 10.79 88.96 28.27C95.36 10.77 114.7 -0.490015 135.44 6.26999C150.18 11.06 159.77 25.33 159.77 40.83C159.786 60.2184 152.918 78.9828 140.39 93.78L139.56 94.78C128.154 107.817 114.143 118.319 98.43 125.61C95.4661 127.005 92.2308 127.728 88.955 127.728C85.6793 127.728 82.4439 127.005 79.48 125.61C63.7671 118.319 49.7561 107.817 38.35 94.78L37.52 93.78C24.9919 78.9828 18.124 60.2184 18.14 40.83H18.15Z" fill="#EF144A"/>
<path d="M5.26003 55.63C4.72003 52.78 4.32002 50.03 4.02002 47.39Z" fill="#EF144A"/>
<path d="M27.69 103.41L26.77 102.41C18 92.8 14 83.19 11.39 76.63" fill="#EF144A"/>
<path d="M172.74 55.63C173.28 52.78 173.68 50.03 173.98 47.39Z" fill="#EF144A"/>
<path d="M150.31 103.41L151.23 102.41C159.99 92.79 163.97 83.18 166.61 76.62" fill="#EF144A"/>
<path d="M18.15 40.83C18.15 25.33 27.74 11.07 42.48 6.26999C63.22 -0.470014 82.56 10.79 88.96 28.27C95.36 10.77 114.7 -0.490015 135.44 6.26999C150.18 11.06 159.77 25.33 159.77 40.83C159.786 60.2184 152.918 78.9828 140.39 93.78L139.56 94.78C128.154 107.817 114.143 118.319 98.43 125.61C95.4661 127.005 92.2308 127.728 88.955 127.728C85.6793 127.728 82.4439 127.005 79.48 125.61C63.7671 118.319 49.7561 107.817 38.35 94.78L37.52 93.78C24.9919 78.9828 18.124 60.2184 18.14 40.83H18.15Z" fill="#EF144A"/>
<path d="M18.15 40.83V44.83C20.3592 44.83 22.15 43.0391 22.15 40.83H18.15ZM42.48 6.26999L41.2438 2.46582L41.2415 2.46657L42.48 6.26999ZM88.96 28.27L85.2039 29.6452C85.7812 31.2219 87.2817 32.2703 88.9608 32.27C90.6398 32.2697 92.14 31.2208 92.7167 29.6438L88.96 28.27ZM135.44 6.26999L134.2 10.0731L134.204 10.0742L135.44 6.26999ZM159.77 40.83L155.77 40.83L155.77 40.8333L159.77 40.83ZM140.39 93.78L137.337 91.1953C137.329 91.2053 137.32 91.2153 137.312 91.2253L140.39 93.78ZM139.56 94.78L142.57 97.4139C142.593 97.3878 142.616 97.3613 142.638 97.3346L139.56 94.78ZM98.43 125.61L96.7464 121.982C96.7398 121.985 96.7332 121.988 96.7266 121.991L98.43 125.61ZM79.48 125.61L81.1834 121.991C81.1768 121.988 81.1702 121.985 81.1637 121.982L79.48 125.61ZM38.35 94.78L35.2721 97.3347C35.2943 97.3614 35.3168 97.3878 35.3396 97.4139L38.35 94.78ZM37.52 93.78L40.5979 91.2253C40.5896 91.2153 40.5812 91.2053 40.5728 91.1953L37.52 93.78ZM18.14 40.83V36.83C15.9322 36.83 14.1418 38.6188 14.14 40.8267L18.14 40.83ZM1.32995 56.3746C1.74121 58.5452 3.83415 59.9713 6.00467 59.5601C8.17519 59.1488 9.60136 57.0559 9.1901 54.8854L1.32995 56.3746ZM7.99444 46.9384C7.74501 44.7433 5.76339 43.1661 3.56838 43.4156C1.37337 43.665 -0.203835 45.6466 0.0455985 47.8416L7.99444 46.9384ZM24.7463 106.118C26.242 107.744 28.7725 107.849 30.3983 106.354C32.024 104.858 32.1295 102.328 30.6337 100.702L24.7463 106.118ZM26.77 102.41L23.8154 105.106C23.819 105.11 23.8227 105.114 23.8263 105.118L26.77 102.41ZM15.1067 75.1513C14.29 73.0986 11.9639 72.0967 9.9113 72.9134C7.85866 73.73 6.85671 76.0561 7.67339 78.1087L15.1067 75.1513ZM168.81 54.8854C168.399 57.0559 169.825 59.1488 171.995 59.5601C174.166 59.9713 176.259 58.5452 176.67 56.3746L168.81 54.8854ZM177.954 47.8416C178.204 45.6466 176.627 43.665 174.432 43.4156C172.237 43.1661 170.255 44.7433 170.006 46.9384L177.954 47.8416ZM147.366 100.702C145.871 102.328 145.976 104.858 147.602 106.354C149.228 107.849 151.758 107.744 153.254 106.118L147.366 100.702ZM151.23 102.41L154.174 105.118C154.178 105.113 154.183 105.108 154.188 105.103L151.23 102.41ZM170.321 78.1133C171.146 76.0639 170.153 73.734 168.103 72.9092C166.054 72.0844 163.724 73.0772 162.899 75.1266L170.321 78.1133ZM22.15 40.83C22.15 26.9231 30.7537 14.2954 43.7186 10.0734L41.2415 2.46657C24.7264 7.84462 14.15 23.7369 14.15 40.83H22.15ZM43.7163 10.0741C62.3043 4.0335 79.505 14.0802 85.2039 29.6452L92.7162 26.8947C85.615 7.49975 64.1358 -4.97353 41.2438 2.46582L43.7163 10.0741ZM92.7167 29.6438C98.4163 14.0591 115.615 4.01548 134.2 10.0731L136.68 2.4669C113.785 -4.99551 92.3038 7.48091 85.2034 26.8961L92.7167 29.6438ZM134.204 10.0742C147.165 14.2861 155.77 26.9213 155.77 40.83H163.77C163.77 23.7387 153.195 7.83386 136.676 2.46581L134.204 10.0742ZM155.77 40.8333C155.785 59.2741 149.253 77.1214 137.337 91.1953L143.443 96.3647C156.583 80.8443 163.787 61.1627 163.77 40.8267L155.77 40.8333ZM137.312 91.2253L136.482 92.2253L142.638 97.3346L143.468 96.3346L137.312 91.2253ZM136.55 92.1461C125.511 104.762 111.952 114.926 96.7464 121.982L100.114 129.238C116.333 121.712 130.796 110.871 142.57 97.4139L136.55 92.1461ZM96.7266 121.991C94.2956 123.135 91.6419 123.728 88.955 123.728V131.728C92.8197 131.728 96.6367 130.875 100.133 129.229L96.7266 121.991ZM88.955 123.728C86.2682 123.728 83.6144 123.135 81.1834 121.991L77.7766 129.229C81.2734 130.875 85.0904 131.728 88.955 131.728V123.728ZM81.1637 121.982C65.9576 114.926 52.3986 104.762 41.3604 92.1461L35.3396 97.4139C47.1137 110.871 61.5766 121.712 77.7964 129.238L81.1637 121.982ZM41.4279 92.2253L40.5979 91.2253L34.4421 96.3347L35.2721 97.3347L41.4279 92.2253ZM40.5728 91.1953C28.657 77.1214 22.1248 59.2741 22.14 40.8333L14.14 40.8267C14.1232 61.1627 21.3268 80.8443 34.4672 96.3647L40.5728 91.1953ZM18.14 44.83H18.15V36.83H18.14V44.83ZM9.1901 54.8854C8.67049 52.143 8.28456 49.4914 7.99444 46.9384L0.0455985 47.8416C0.355475 50.5685 0.769555 53.417 1.32995 56.3746L9.1901 54.8854ZM30.6337 100.702L29.7137 99.7018L23.8263 105.118L24.7463 106.118L30.6337 100.702ZM29.7246 99.7136C21.4587 90.656 17.6733 81.6024 15.1067 75.1513L7.67339 78.1087C10.3267 84.7776 14.5414 94.944 23.8154 105.106L29.7246 99.7136ZM176.67 56.3746C177.23 53.417 177.645 50.5685 177.954 47.8416L170.006 46.9384C169.715 49.4915 169.33 52.143 168.81 54.8854L176.67 56.3746ZM153.254 106.118L154.174 105.118L148.286 99.7018L147.366 100.702L153.254 106.118ZM154.188 105.103C163.451 94.9306 167.645 84.762 170.321 78.1133L162.899 75.1266C160.295 81.5979 156.529 90.6494 148.272 99.7169L154.188 105.103Z" fill="#EF144A"/>
</svg>
